<svg xmlns="http://www.w3.org/2000/svg" width="24" height="21.678" viewBox="0 0 24 21.678">
    <defs>
        <clipPath id="cmxodpphca">
            <path data-name="Rectangle 12283" style="fill:#fff" d="M0 0h24v21.678H0z"/>
        </clipPath>
    </defs>
    <g data-name="Group 6916">
        <g data-name="Group 6915" style="clip-path:url(#cmxodpphca)">
            <path data-name="Path 6357" d="M23 .808a2.985 2.985 0 0 0-2.3-.794 34.236 34.236 0 0 0-5.66 1.195A5.272 5.272 0 0 0 12 3.459 5.27 5.27 0 0 0 8.958 1.21 34.277 34.277 0 0 0 3.3.014 2.987 2.987 0 0 0 1 .808 3.094 3.094 0 0 0 0 3.08v13.384a3.078 3.078 0 0 0 2.852 3.054 28.127 28.127 0 0 1 8.439 1.941l.4.159a.823.823 0 0 0 .311.06.835.835 0 0 0 .311-.06l.4-.159a31.726 31.726 0 0 1 8.55-1.951A3.06 3.06 0 0 0 24 16.464V3.079a3.094 3.094 0 0 0-1-2.272zM11.161 19.637a29.726 29.726 0 0 0-8.191-1.79 1.4 1.4 0 0 1-1.3-1.384V3.079a1.419 1.419 0 0 1 .456-1.041 1.347 1.347 0 0 1 .917-.363h.113a33.854 33.854 0 0 1 5.355 1.146 3.625 3.625 0 0 1 2.649 3.494v13.322zm11.163-3.174a1.389 1.389 0 0 1-1.246 1.379 34.583 34.583 0 0 0-8.243 1.779V6.315a3.628 3.628 0 0 1 2.649-3.494 33.838 33.838 0 0 1 5.353-1.142 1.369 1.369 0 0 1 1.029.359 1.42 1.42 0 0 1 .457 1.04v13.385z" style="fill:#fff"/>
        </g>
    </g>
</svg>
