<svg xmlns="http://www.w3.org/2000/svg" width="24" height="23.999" viewBox="0 0 24 23.999">
    <defs>
        <clipPath id="lnnxm0mkja">
            <path data-name="Rectangle 12284" style="fill:#fff" d="M0 0h24v23.999H0z"/>
        </clipPath>
    </defs>
    <g data-name="Group 6918">
        <g data-name="Group 6917" style="clip-path:url(#lnnxm0mkja)">
            <path data-name="Path 6358" d="M20.616 0H3.384A3.387 3.387 0 0 0 0 3.384v17.231A3.388 3.388 0 0 0 3.384 24h17.231A3.388 3.388 0 0 0 24 20.615V3.384A3.387 3.387 0 0 0 20.616 0zm1.538 20.616a1.54 1.54 0 0 1-1.538 1.538H3.384a1.54 1.54 0 0 1-1.538-1.538v-6.462h4.345a.3.3 0 0 1 .29.21l.39 1.168a3.384 3.384 0 0 0 3.211 2.314h3.837a3.382 3.382 0 0 0 3.211-2.314l.39-1.169a.3.3 0 0 1 .291-.21h4.344v6.462zm0-8.308H17.81a2.151 2.151 0 0 0-2.044 1.472l-.39 1.168A1.536 1.536 0 0 1 13.917 16H10.08a1.537 1.537 0 0 1-1.459-1.052l-.39-1.167a2.151 2.151 0 0 0-2.044-1.473H1.843V3.385a1.54 1.54 0 0 1 1.538-1.538h17.23a1.54 1.54 0 0 1 1.538 1.538v8.923z" style="fill:#fff"/>
        </g>
    </g>
</svg>
