<svg xmlns="http://www.w3.org/2000/svg" width="28" height="28" viewBox="0 0 28 28">
    <path data-name="Path 6350" d="M24 21h2v5h-2z" style="fill:#fff" transform="translate(-2 -2)"/>
    <path data-name="Path 6351" d="M20 16h2v10h-2z" style="fill:#fff" transform="translate(-2 -2)"/>
    <path data-name="Path 6352" d="M11 26a5.006 5.006 0 0 1-5-5h2a3 3 0 1 0 3-3v-2a5 5 0 0 1 0 10z" style="fill:#fff" transform="translate(-2 -2)"/>
    <path data-name="Path 6353" d="M28 2H4a2 2 0 0 0-2 2v24a2 2 0 0 0 2 2h24a2 2 0 0 0 2-2V4a2 2 0 0 0-2-2zm0 9H14V4h14zM12 4v7H4V4zM4 28V13h24v15z" style="fill:#fff" transform="translate(-2 -2)"/>
</svg>
