<svg xmlns="http://www.w3.org/2000/svg" width="24" height="23.999" viewBox="0 0 24 23.999">
    <defs>
        <clipPath id="m8cs6ud7sa">
            <path data-name="Rectangle 12285" style="fill:#fff" d="M0 0h24v23.999H0z"/>
        </clipPath>
    </defs>
    <g data-name="Group 6920">
        <g data-name="Group 6919" style="clip-path:url(#m8cs6ud7sa)">
            <path data-name="Path 6359" d="M8.651 12.838a6.419 6.419 0 1 0-6.418-6.419 6.426 6.426 0 0 0 6.418 6.419m0-11.163a4.743 4.743 0 1 1-4.744 4.743 4.75 4.75 0 0 1 4.744-4.743M17.3 20.93v2.232a.837.837 0 0 1-1.674 0V20.93A3.632 3.632 0 0 0 12 17.3H5.3a3.632 3.632 0 0 0-3.626 3.63v2.232a.837.837 0 0 1-1.674 0V20.93a5.308 5.308 0 0 1 5.3-5.3H12a5.309 5.309 0 0 1 5.3 5.3m6.7 0v2.232a.837.837 0 0 1-1.675 0V20.93A3.632 3.632 0 0 0 18.7 17.3h-1.079a6.714 6.714 0 0 0-1.545-1.675H18.7A5.309 5.309 0 0 1 24 20.93zM13.472.283a6.419 6.419 0 1 1 0 12.271 7.938 7.938 0 0 0 1.409-1.44 4.5 4.5 0 0 0 .467.048 4.743 4.743 0 1 0 0-9.487 4.5 4.5 0 0 0-.467.048 7.938 7.938 0 0 0-1.409-1.44z" style="fill:#fff"/>
        </g>
    </g>
</svg>
