<svg xmlns="http://www.w3.org/2000/svg" width="28" height="25.396" viewBox="0 0 28 25.396">
    <defs>
        <clipPath id="ilu5bphnxa">
            <path data-name="Rectangle 12281" style="fill:#fff" d="M0 0h28v25.396H0z"/>
        </clipPath>
    </defs>
    <g data-name="Group 6912">
        <g data-name="Group 6911" style="clip-path:url(#ilu5bphnxa)">
            <path data-name="Path 6355" d="M17.859 25.4h-7.72a2.3 2.3 0 0 1-2.072-1.321 2.461 2.461 0 0 1 .269-2.614l3.858-4.94a2.338 2.338 0 0 1 3.609 0l3.859 4.94a2.463 2.463 0 0 1 .268 2.615 2.3 2.3 0 0 1-2.072 1.32zM14 17.582a.332.332 0 0 0-.267.141l-3.858 4.94a.527.527 0 0 0-.051.556.353.353 0 0 0 .315.223h7.72a.347.347 0 0 0 .315-.223.527.527 0 0 0-.051-.556l-3.859-4.94a.331.331 0 0 0-.264-.142zM24.418 0H3.581A3.585 3.585 0 0 0 0 3.581V16.6a3.585 3.585 0 0 0 3.581 3.581h3.685l1.526-1.954H3.581A1.629 1.629 0 0 1 1.954 16.6V3.576A1.63 1.63 0 0 1 3.58 1.954h20.838a1.629 1.629 0 0 1 1.627 1.627V16.6a1.629 1.629 0 0 1-1.627 1.627h-5.211l1.525 1.954h3.685A3.585 3.585 0 0 0 28 16.6V3.581A3.585 3.585 0 0 0 24.419 0z" style="fill:#fff"/>
        </g>
    </g>
</svg>
