<svg data-name="Group 6914" xmlns="http://www.w3.org/2000/svg" width="28" height="20.185" viewBox="0 0 28 20.185">
    <defs>
        <clipPath id="a1493470ma">
            <path data-name="Rectangle 12282" style="fill:#fff" d="M0 0h28v20.185H0z"/>
        </clipPath>
    </defs>
    <g data-name="Group 6913" style="clip-path:url(#a1493470ma)">
        <path data-name="Path 6356" d="M28 9.441a.976.976 0 0 1-.977.977h-6.511a.979.979 0 0 1-.934-.69L17.941 4.41l-4.305 15.067a.977.977 0 0 1-.88.707H12.7a.98.98 0 0 1-.9-.6L7.511 9.407l-1.72 4.3a.976.976 0 0 1-.907.614H.977a.977.977 0 1 1 0-1.953h3.245l2.359-5.9a.978.978 0 0 1 .9-.614.964.964 0 0 1 .91.6l4.131 9.815L16.967.708A.973.973 0 0 1 17.9 0a1 1 0 0 1 .944.69l2.386 7.776h5.791a.976.976 0 0 1 .979.976z" style="fill:#fff"/>
    </g>
</svg>
