<svg xmlns="http://www.w3.org/2000/svg" width="78.647" height="54.872" viewBox="0 0 78.647 54.872">
    <path data-name="Path 6338" d="M32.736 5.988a13.7 13.7 0 0 1 9.964-4.26A13.926 13.926 0 0 1 54.838 8.9a17.028 17.028 0 1 1 6.849 32.647 16.191 16.191 0 0 1-3.352-.346 12.4 12.4 0 0 1-10.806 6.334 12.75 12.75 0 0 1-5.429-1.242 14.147 14.147 0 0 1-26.264-.634 13.652 13.652 0 0 1-2.686.288 13.278 13.278 0 0 1-6.588-24.73 14.987 14.987 0 0 1-1.242-6.046 15.286 15.286 0 0 1 27.416-9.183z" style="fill:#009ddc"/>
    <path data-name="Path 6339" d="M9.124 24.062c-.059.115.029.144.029.172a2.364 2.364 0 0 0 .462.26 4.722 4.722 0 0 0 2.341.547c1.618 0 2.629-.864 2.629-2.217V22.8c0-1.267-1.127-1.728-2.2-2.072l-.144-.057c-.809-.26-1.5-.489-1.5-1.009v-.029c0-.461.406-.776 1.041-.776a4.691 4.691 0 0 1 2.051.518s.145.086.2-.057c.029-.087.29-.806.318-.893a.14.14 0 0 0-.087-.174 4.513 4.513 0 0 0-2.311-.6h-.175a2.26 2.26 0 0 0-2.51 2.149v.029c0 1.353 1.127 1.785 2.2 2.072l.172.057c.78.231 1.444.432 1.444.979v.029c0 .489-.433.864-1.126.864a3.793 3.793 0 0 1-2.081-.6 2.035 2.035 0 0 1-.26-.172c-.057-.029-.174-.087-.2.086l-.29.921zm23.633 0c-.057.115.029.144.029.172a2.439 2.439 0 0 0 .462.26 4.725 4.725 0 0 0 2.341.547c1.618 0 2.629-.864 2.629-2.217V22.8c0-1.267-1.126-1.728-2.2-2.072l-.144-.057c-.809-.26-1.5-.489-1.5-1.009v-.029c0-.461.4-.776 1.04-.776a4.692 4.692 0 0 1 2.052.518s.144.086.2-.057c.029-.087.288-.806.317-.893a.14.14 0 0 0-.087-.174 4.5 4.5 0 0 0-2.309-.6h-.175A2.26 2.26 0 0 0 32.9 19.8v.029c0 1.353 1.126 1.785 2.2 2.072l.174.057c.78.231 1.444.432 1.444.979v.029c0 .489-.433.864-1.127.864a3.792 3.792 0 0 1-2.08-.6 1.95 1.95 0 0 1-.26-.172.129.129 0 0 0-.2.086l-.287.921zm17.452-4.146a3.646 3.646 0 0 0-.607-1.151 3.089 3.089 0 0 0-1.04-.778 3.78 3.78 0 0 0-2.89 0 3.51 3.51 0 0 0-1.04.778 3.145 3.145 0 0 0-.607 1.151 5.223 5.223 0 0 0 0 2.879 3.656 3.656 0 0 0 .607 1.152 3.09 3.09 0 0 0 1.04.776 3.674 3.674 0 0 0 1.444.288 3.264 3.264 0 0 0 1.446-.287 3.11 3.11 0 0 0 1.04-.778 3.146 3.146 0 0 0 .607-1.152 4.556 4.556 0 0 0 .2-1.439 4.678 4.678 0 0 0-.2-1.439zm-1.358 1.439a3.234 3.234 0 0 1-.433 1.814 1.449 1.449 0 0 1-1.3.634 1.42 1.42 0 0 1-1.3-.634 3.244 3.244 0 0 1-.433-1.814 3.247 3.247 0 0 1 .433-1.814 1.417 1.417 0 0 1 1.3-.633 1.389 1.389 0 0 1 1.3.633 3.234 3.234 0 0 1 .433 1.815z" transform="translate(2.261 4.382)" style="fill:#fff"/>
    <path data-name="Path 6340" d="M58 23.626c-.057-.145-.174-.087-.174-.087a2.261 2.261 0 0 1-.637.172 5.672 5.672 0 0 1-.749.059 2.054 2.054 0 0 1-1.533-.577 2.565 2.565 0 0 1-.577-1.843 2.709 2.709 0 0 1 .519-1.756 1.777 1.777 0 0 1 1.5-.662 4.286 4.286 0 0 1 1.416.2s.115.057.145-.087c.115-.316.2-.547.317-.921.029-.115-.057-.144-.087-.144a7.831 7.831 0 0 0-.9-.23 5.48 5.48 0 0 0-1.011-.057 3.5 3.5 0 0 0-1.5.287 3.428 3.428 0 0 0-1.1.778 3.257 3.257 0 0 0-.664 1.151 4.554 4.554 0 0 0-.231 1.439 3.8 3.8 0 0 0 .9 2.678 3.45 3.45 0 0 0 2.666 1.009 5.475 5.475 0 0 0 1.9-.345.158.158 0 0 0 .057-.172L58 23.625zm6.877-3.975a3.042 3.042 0 0 0-.578-1.065 2.478 2.478 0 0 0-.866-.662 3.081 3.081 0 0 0-1.3-.26 3.431 3.431 0 0 0-1.5.287 2.663 2.663 0 0 0-1.041.806 2.878 2.878 0 0 0-.605 1.181 4.69 4.69 0 0 0-.2 1.439 4.556 4.556 0 0 0 .2 1.439 2.85 2.85 0 0 0 .664 1.151 2.957 2.957 0 0 0 1.156.749 4.714 4.714 0 0 0 1.647.26 4.31 4.31 0 0 0 2.282-.462c.059-.027.087-.086.029-.23l-.288-.835a.156.156 0 0 0-.174-.086 4.429 4.429 0 0 1-1.878.346 2.09 2.09 0 0 1-1.56-.547 2.131 2.131 0 0 1-.521-1.5h4.565a.153.153 0 0 0 .145-.115 6.138 6.138 0 0 0-.176-1.896zm-4.537.95a2.362 2.362 0 0 1 .376-1.065 1.44 1.44 0 0 1 1.3-.662 1.388 1.388 0 0 1 1.271.662 2.428 2.428 0 0 1 .29 1.065H60.34zm-31.956-.95a3.042 3.042 0 0 0-.578-1.065 2.481 2.481 0 0 0-.868-.662 3.081 3.081 0 0 0-1.3-.26 3.441 3.441 0 0 0-1.5.287 2.663 2.663 0 0 0-1.04.806 2.877 2.877 0 0 0-.607 1.181 4.69 4.69 0 0 0-.2 1.439 4.556 4.556 0 0 0 .2 1.439 2.879 2.879 0 0 0 .664 1.151 2.975 2.975 0 0 0 1.156.749 4.717 4.717 0 0 0 1.648.26 4.314 4.314 0 0 0 2.282-.462c.057-.027.087-.086.029-.23l-.288-.835a.157.157 0 0 0-.175-.086 4.418 4.418 0 0 1-1.878.346 2.092 2.092 0 0 1-1.56-.547 2.136 2.136 0 0 1-.519-1.5h4.565a.151.151 0 0 0 .144-.115 6.158 6.158 0 0 0-.173-1.896zm-4.537.95a2.347 2.347 0 0 1 .375-1.065 1.44 1.44 0 0 1 1.3-.662 1.391 1.391 0 0 1 1.272.662 2.411 2.411 0 0 1 .288 1.065h-3.231z" transform="translate(5.536 4.387)" style="fill-rule:evenodd;fill:#fff"/>
    <path data-name="Path 6341" d="M17.841 20.406c-.174 0-.433-.029-.723-.029a4.654 4.654 0 0 0-1.126.144 2.859 2.859 0 0 0-.954.432 2.348 2.348 0 0 0-.664.749 2.015 2.015 0 0 0-.231 1.036 2.283 2.283 0 0 0 .2 1.036 2.074 2.074 0 0 0 .607.72 3 3 0 0 0 .924.4 5.124 5.124 0 0 0 1.213.115 7.537 7.537 0 0 0 1.387-.115c.434-.087.982-.174 1.156-.231a3.033 3.033 0 0 0 .318-.087.15.15 0 0 0 .115-.142v-4.143a2.532 2.532 0 0 0-.722-2.016 3.211 3.211 0 0 0-2.081-.633 8.3 8.3 0 0 0-1.213.115 4.822 4.822 0 0 0-1.416.518.129.129 0 0 0-.029.174l.318.864a.116.116 0 0 0 .144.086.23.23 0 0 0 .087-.029 4.885 4.885 0 0 1 1.994-.462 1.813 1.813 0 0 1 1.126.288c.261.2.376.489.376 1.095v.2c-.462-.057-.809-.086-.809-.086zm-1.82 3.2a1.045 1.045 0 0 1-.26-.26 1.167 1.167 0 0 1-.145-.6 1.059 1.059 0 0 1 .4-.893 2.024 2.024 0 0 1 1.33-.317 7.084 7.084 0 0 1 1.242.116v2.072s-.578.115-1.242.172a2.152 2.152 0 0 1-1.325-.296z" transform="translate(3.513 4.382)" style="fill:#fff"/>
    <path data-name="Path 6342" d="M53.133 18.652a.143.143 0 0 0-.057-.172 3.146 3.146 0 0 0-.752-.116 2.18 2.18 0 0 0-1.185.2 1.971 1.971 0 0 0-.78.575v-.547a.136.136 0 0 0-.144-.145h-1.156a.137.137 0 0 0-.145.145v6.766a.136.136 0 0 0 .145.144h1.185a.136.136 0 0 0 .144-.145v-3.423a4.235 4.235 0 0 1 .145-1.18 1.37 1.37 0 0 1 .4-.663 1.279 1.279 0 0 1 .549-.346 2.372 2.372 0 0 1 .607-.086 2.668 2.668 0 0 1 .491.057.2.2 0 0 0 .175-.115 9.056 9.056 0 0 0 .378-.949zm-11.242-3.167a2.169 2.169 0 0 0-.462-.115 3.615 3.615 0 0 0-.607-.057 2.6 2.6 0 0 0-1.935.69 3.863 3.863 0 0 0-.925 2.072l-.059.318h-1.04a.157.157 0 0 0-.144.144l-.175.949c0 .087.03.145.145.145H37.7L36.69 25.3a10.8 10.8 0 0 1-.26 1.124 1.845 1.845 0 0 1-.318.633.866.866 0 0 1-.4.317 1.566 1.566 0 0 1-.549.086c-.115 0-.258-.029-.375-.029a2.319 2.319 0 0 1-.26-.087.127.127 0 0 0-.175.087c-.027.086-.317.835-.346.921s0 .172.057.172a1.612 1.612 0 0 0 .4.115 2.781 2.781 0 0 0 .665.059 3.309 3.309 0 0 0 1.126-.174 2.085 2.085 0 0 0 .839-.575 2.884 2.884 0 0 0 .577-1.007 10.374 10.374 0 0 0 .4-1.526l1.041-5.787h1.5a.158.158 0 0 0 .145-.144l.174-.95c0-.087-.029-.144-.145-.144h-1.437a8.285 8.285 0 0 1 .231-1.036 1.2 1.2 0 0 1 .318-.491.747.747 0 0 1 .375-.23 1.364 1.364 0 0 1 .492-.057c.145 0 .26.029.375.029.145.029.2.057.232.057.145.057.174 0 .2-.057l.347-.95c.087-.115 0-.145-.029-.174zm-20.367 9.846a.135.135 0 0 1-.145.144h-1.213a.136.136 0 0 1-.145-.144v-9.7a.137.137 0 0 1 .145-.144h1.213a.136.136 0 0 1 .145.144z" transform="translate(4.972 3.803)" style="fill-rule:evenodd;fill:#fff"/>
</svg>
