<svg xmlns="http://www.w3.org/2000/svg" width="96.211" height="39.503" viewBox="0 0 96.211 39.503">
    <path d="M14.4 7a5.434 5.434 0 0 0 0 7.8 5.434 5.434 0 0 0 7.8 0c2.1-2.2 1.6-3.2 2.1-9.9-6.9.5-7.5 0-9.9 2.1zm2.7 6.8h-.4a1.222 1.222 0 0 1-.9-.3 1.609 1.609 0 0 1-.3-1.1v-2.1H15v-.8h.5V8.4h1.2v1.1h.6v.8h-.6v2.1c0 .2 0 .3.1.4s.1.1.2.1h.4l.1.8c-.2 0-.3.1-.4.1zm4.5-.1h-1.2v-2.5c0-.4 0-.6-.1-.7a.52.52 0 0 0-.4-.2.367.367 0 0 0-.3.1.215.215 0 0 0-.2.2v3.2h-1.2V7.6h1.2V10c.1-.2.3-.3.4-.4.2-.1.3-.2.5-.2a.975.975 0 0 1 .9.4 2.649 2.649 0 0 1 .3 1.4v2.5z" style="fill:#5dc3e1" transform="translate(.011)"/>
    <path d="M30.7 14.5c4.2 0 8 2.9 8 8.3v6.8c0 3.3-.5 6-2.4 7.7a11.4 11.4 0 0 1-7 2.2 13.2 13.2 0 0 1-6.2-1.4l1.1-4a11.056 11.056 0 0 0 5 1.3 4.146 4.146 0 0 0 4.5-4.5v-1.1h-.1A5.554 5.554 0 0 1 29 32c-4.3 0-7.3-3.4-7.3-8.4 0-5.5 3.6-9 7.8-9 2.3-.1 1.2-.1 1.2-.1zm2.8 7.4a3.083 3.083 0 0 0-.1-1 2.987 2.987 0 0 0-2.9-2.4c-1.9 0-3.5 1.8-3.5 4.9 0 2.6 1.3 4.6 3.5 4.6a2.8 2.8 0 0 0 2.8-2.2 5.9 5.9 0 0 0 .2-1.4v-2.5zM41.1 20.6c0-2.5-.1-4.2-.1-5.7h4.6l.2 3.2h.1a5.126 5.126 0 0 1 4.6-3.6 3.749 3.749 0 0 1 1.1.1v5a5.721 5.721 0 0 0-1.4-.1 3.54 3.54 0 0 0-3.7 2.7 4.869 4.869 0 0 0-.1 1.2v8.7h-5.3V20.6zM62.5 32.1l-.3-1.7H62a6.072 6.072 0 0 1-4.9 2.1 5.285 5.285 0 0 1-5.6-5.3c0-4.5 4-6.6 10.1-6.6v-.2c0-.9-.5-2.2-3.1-2.2a9.315 9.315 0 0 0-4.7 1.3l-1-3.4a14.035 14.035 0 0 1 6.7-1.5c5.7 0 7.6 3.4 7.6 7.4v6c0 1.7.1 3.2.2 4.2h-4.8zm-.7-8.1c-2.8 0-5 .6-5 2.7a1.867 1.867 0 0 0 2.1 2 3.048 3.048 0 0 0 2.8-2 2.769 2.769 0 0 0 .1-.9V24zM79.9 21.3c0-5.8 4.5-6.1 4.5-6.1l.2 2.1h.1a6.3 6.3 0 0 1 5.3-2.7c3.5 0 6.2 2.3 6.2 7.4v10.2h-5.3v-9.5c0-2.2-.8-3.7-2.7-3.7a2.751 2.751 0 0 0-2.7 2 4.438 4.438 0 0 0-.2 1.3v9.9H80V21.3zM10.4 16.8a6.988 6.988 0 0 0-4.9 1.8 6.732 6.732 0 0 1 5.7-5.2 7.555 7.555 0 0 1-.3-4.2A13 13 0 0 0 4 12.4a13.609 13.609 0 0 0-4 10.2c0 5.4 3 10 9.1 10a8.12 8.12 0 0 0 8.4-8.3c0-4.8-3.2-7.5-7.1-7.5zM9 28.6c-2.4 0-3.6-2.2-3.7-4.6a3.475 3.475 0 0 1 .2-1.3 3.353 3.353 0 0 1 3.2-2c2.3 0 3.4 1.8 3.4 3.9 0 2.2-1.2 4-3.1 4z" style="fill:#fff" transform="translate(.011)"/>
    <g>
        <path d="M77.2 3.6a12.445 12.445 0 0 0 2-1.1s-.5 1.4-.6 1.9a3.781 3.781 0 0 1-1.9 2.9 5.7 5.7 0 0 0-2.4 2.5 13.6 13.6 0 0 0 .6-3 4.67 4.67 0 0 1 2.3-3.2zM74.1 8.3V5.9a4.076 4.076 0 0 1-.9-2.5 1.665 1.665 0 0 0-1.7 1.7c0 1.1 2.3 2 2.1 5.4a6.327 6.327 0 0 0 .5-2.2z" style="fill:#fec707" transform="translate(.011)"/>
        <path d="M77.4 2.4c-.2-.8-1-1.1-1.1-2.4 0 0-2.3 1.9-2.3 2.4 0 .9.9.9.6 2.7.3-1.8 1.2-2.7 2.8-2.7z" style="fill:#f7a50f" transform="translate(.011)"/>
    </g>
    <g>
        <path d="M82.5 12c-3.8 1.3-4.9 4-4.9 9.3v11.3h-1.7V21.3c-.1-5.5 1.1-8 6.6-9.3zM68.9 5.9a8.8 8.8 0 0 1 1 .6 2.075 2.075 0 0 0-1-.6z" style="fill:#93c24b" transform="translate(.011)"/>
        <path d="M72.4 14.5c0-4.3-.9-6.9-3.4-8.6a9.986 9.986 0 0 1 2.5 6.9 7.23 7.23 0 0 0-4.9-4.3c3.1 1.2 4.7 4.8 4.8 9.9a8.145 8.145 0 0 0-7.7-6.7c4.5 1.3 6.2 4.9 6.2 10.2v10.7h2.6V18c-.1-.7-.1-2.9-.1-3.5z" style="fill:#93c24b" transform="translate(.011)"/>
    </g>
    <g>
        <path d="M80.9 7.2c-3.2 1.3-5.9 4.5-5.9 9.9v15.5h-1.7V17.1a9.572 9.572 0 0 1 7.6-9.9z" style="fill:#fec707" transform="translate(.011)"/>
    </g>
</svg>
